<svg xmlns="http://www.w3.org/2000/svg" width="133.762" height="132.974" viewBox="0 0 133.762 132.974">
  <g id="_003-donuts" data-name="003-donuts" transform="translate(0 0.001)">
    <path id="Path_1403" data-name="Path 1403" d="M66.881,0C29.943,0,0,29.767,0,66.487s29.943,66.487,66.881,66.487,66.881-29.767,66.881-66.487S103.819,0,66.881,0Zm0,86.6A20.118,20.118,0,1,1,87.118,66.487,20.177,20.177,0,0,1,66.881,86.6Zm0,0" transform="translate(0 -0.001)" fill="#fef1da"/>
    <path id="Path_1404" data-name="Path 1404" d="M244.385,0q-2.068,0-4.108.124a66.466,66.466,0,0,1,0,132.726q2.039.123,4.108.124c36.938,0,66.881-29.767,66.881-66.487S281.323,0,244.385,0Zm0,0" transform="translate(-177.504)" fill="#fde6bf"/>
    <path id="Path_1405" data-name="Path 1405" d="M67.01,0C30.594-.069.637,29.12.01,65.317A65.9,65.9,0,0,0,8.127,98.271a1.4,1.4,0,0,0,2.634-.67,8.017,8.017,0,0,1,16.034,0v6.08a8.017,8.017,0,0,0,16.034,0v-1.26a8.017,8.017,0,0,1,16.033,0v11.846a8.017,8.017,0,0,0,16.034,0V102.422a8.017,8.017,0,0,1,16.034,0v1.26a8.017,8.017,0,0,0,16.034,0V97.6A8.017,8.017,0,0,1,123,97.6a1.4,1.4,0,0,0,2.631.677,65.879,65.879,0,0,0,8.13-31.792C133.762,29.81,103.888.07,67.01,0Zm-.13,86.6A20.118,20.118,0,1,1,87.118,66.487,20.177,20.177,0,0,1,66.881,86.6Zm0,0" transform="translate(0 0)" fill="#ff646f"/>
    <path id="Path_1406" data-name="Path 1406" d="M244.546,0q-2.128,0-4.226.124a66.66,66.66,0,0,1,62.763,66.363,65.95,65.95,0,0,1-5.032,25.348,7.926,7.926,0,0,1,2.485,5.768,1.4,1.4,0,0,0,2.63.676A65.869,65.869,0,0,0,311.3,66.487C311.3,29.81,281.423.07,244.546,0Zm0,0" transform="translate(-177.536 0)" fill="#ff4755"/>
    <g id="Group_43" data-name="Group 43" transform="translate(20.477 6.515)">
      <path id="Path_1407" data-name="Path 1407" d="M244.678,31.244a6.195,6.195,0,1,1-6.195-6.158A6.176,6.176,0,0,1,244.678,31.244Zm0,0" transform="translate(-192.08 -25.086)" fill="#fdd79b"/>
      <path id="Path_1408" data-name="Path 1408" d="M360.5,152.614a5.211,5.211,0,1,1-5.211-5.18A5.2,5.2,0,0,1,360.5,152.614Zm0,0" transform="translate(-279.096 -115.658)" fill="#fdd79b"/>
      <path id="Path_1409" data-name="Path 1409" d="M104.309,279.531a5.485,5.485,0,1,1-5.484-5.453A5.468,5.468,0,0,1,104.309,279.531Zm0,0" transform="translate(-89.431 -209.411)" fill="#fdd79b"/>
      <path id="Path_1410" data-name="Path 1410" d="M102.376,122.018a12,12,0,1,1-12-11.928A11.964,11.964,0,0,1,102.376,122.018Zm0,0" transform="translate(-78.378 -88.013)" fill="#fdd79b"/>
      <path id="Path_1411" data-name="Path 1411" d="M464.907,204.425a12.324,12.324,0,0,0,11.787,10.326,66.905,66.905,0,0,0,.4-7.3,66.183,66.183,0,0,0-2.22-17.034A12.28,12.28,0,0,0,464.907,204.425Zm0,0" transform="translate(-363.809 -147.476)" fill="#fdd79b"/>
    </g>
    <path id="Path_1412" data-name="Path 1412" d="M483.027,190.414a12.317,12.317,0,0,0-7.242,4.192,66.4,66.4,0,0,1,1.247,12.842q0,2.056-.123,4.083a12.381,12.381,0,0,0,7.938,3.22h0a66.905,66.905,0,0,0,.4-7.3,66.236,66.236,0,0,0-2.173-16.873c-.017-.054-.033-.107-.047-.16Zm0,0" transform="translate(-351.485 -140.961)" fill="#ffba7e"/>
  </g>
</svg>
